<svg xmlns="http://www.w3.org/2000/svg" xmlns:svg="http://www.w3.org/2000/svg" id="svg8" width="24mm" height="40mm" version="1.1" viewBox="0 0 24 40"><defs id="defs2"><marker style="overflow:visible" id="marker7369" orient="auto" refX="0" refY="0"><path style="fill:#666;fill-opacity:1;fill-rule:evenodd;stroke:#666;stroke-width:1.00000003pt;stroke-opacity:1" id="path7371" d="M 0,0 5,-5 -12.5,0 5,5 Z" transform="matrix(-0.4,0,0,-0.4,-4,0)"/></marker><marker id="marker5457" orient="auto" refX="0" refY="0" style="overflow:visible"><path id="path5459" d="M 0,0 5,-5 -12.5,0 5,5 Z" transform="matrix(0.2,0,0,0.2,1.2,0)" style="fill:#000;fill-opacity:1;fill-rule:evenodd;stroke:#000;stroke-width:1.00000003pt;stroke-opacity:1"/></marker><marker id="marker5327" orient="auto" refX="0" refY="0" style="overflow:visible"><path id="path5329" d="M 0,0 5,-5 -12.5,0 5,5 Z" transform="matrix(-0.2,0,0,-0.2,-1.2,0)" style="fill:#000;fill-opacity:1;fill-rule:evenodd;stroke:#000;stroke-width:1.00000003pt;stroke-opacity:1"/></marker><marker style="overflow:visible" id="marker4910" orient="auto" refX="0" refY="0"><path style="fill:#000;fill-opacity:1;fill-rule:evenodd;stroke:#000;stroke-width:1.00000003pt;stroke-opacity:1" id="path4912" d="M 0,0 5,-5 -12.5,0 5,5 Z" transform="matrix(-0.2,0,0,-0.2,-1.2,0)"/></marker><marker style="overflow:visible" id="marker4798" orient="auto" refX="0" refY="0"><path style="fill:#000;fill-opacity:1;fill-rule:evenodd;stroke:#000;stroke-width:1.00000003pt;stroke-opacity:1" id="path4800" d="M 0,0 5,-5 -12.5,0 5,5 Z" transform="matrix(0.2,0,0,0.2,1.2,0)"/></marker><marker style="overflow:visible" id="marker4722" orient="auto" refX="0" refY="0"><path style="fill:#000;fill-opacity:1;fill-rule:evenodd;stroke:#000;stroke-width:1.00000003pt;stroke-opacity:1" id="path4724" d="M 0,0 5,-5 -12.5,0 5,5 Z" transform="matrix(0.2,0,0,0.2,1.2,0)"/></marker><marker id="Arrow1Mend" orient="auto" refX="0" refY="0" style="overflow:visible"><path id="path4573" d="M 0,0 5,-5 -12.5,0 5,5 Z" transform="matrix(-0.4,0,0,-0.4,-4,0)" style="fill:#000;fill-opacity:1;fill-rule:evenodd;stroke:#000;stroke-width:1.00000003pt;stroke-opacity:1"/></marker><marker id="Arrow1Send" orient="auto" refX="0" refY="0" style="overflow:visible"><path id="path4579" d="M 0,0 5,-5 -12.5,0 5,5 Z" transform="matrix(-0.2,0,0,-0.2,-1.2,0)" style="fill:#000;fill-opacity:1;fill-rule:evenodd;stroke:#000;stroke-width:1.00000003pt;stroke-opacity:1"/></marker><marker id="Arrow1Sstart" orient="auto" refX="0" refY="0" style="overflow:visible"><path id="path4576" d="M 0,0 5,-5 -12.5,0 5,5 Z" transform="matrix(0.2,0,0,0.2,1.2,0)" style="fill:#000;fill-opacity:1;fill-rule:evenodd;stroke:#000;stroke-width:1.00000003pt;stroke-opacity:1"/></marker><marker id="Arrow1Mstart" orient="auto" refX="0" refY="0" style="overflow:visible"><path id="path4570" d="M 0,0 5,-5 -12.5,0 5,5 Z" transform="matrix(0.4,0,0,0.4,4,0)" style="fill:#666;fill-opacity:1;fill-rule:evenodd;stroke:#666;stroke-width:1.00000003pt;stroke-opacity:1"/></marker><marker id="Arrow1Mstart-8" orient="auto" refX="0" refY="0" style="overflow:visible"><path id="path4570-7" d="M 0,0 5,-5 -12.5,0 5,5 Z" transform="matrix(0.4,0,0,0.4,4,0)" style="fill:#000;fill-opacity:1;fill-rule:evenodd;stroke:#000;stroke-width:1.00000003pt;stroke-opacity:1"/></marker><marker id="Arrow1Mend-6" orient="auto" refX="0" refY="0" style="overflow:visible"><path id="path4573-1" d="M 0,0 5,-5 -12.5,0 5,5 Z" transform="matrix(-0.4,0,0,-0.4,-4,0)" style="fill:#000;fill-opacity:1;fill-rule:evenodd;stroke:#000;stroke-width:1.00000003pt;stroke-opacity:1"/></marker><marker id="Arrow1Mstart-9" orient="auto" refX="0" refY="0" style="overflow:visible"><path id="path4570-1" d="M 0,0 5,-5 -12.5,0 5,5 Z" transform="matrix(0.4,0,0,0.4,4,0)" style="fill:#000;fill-opacity:1;fill-rule:evenodd;stroke:#000;stroke-width:1.00000003pt;stroke-opacity:1"/></marker><marker id="Arrow1Mend-7" orient="auto" refX="0" refY="0" style="overflow:visible"><path id="path4573-4" d="M 0,0 5,-5 -12.5,0 5,5 Z" transform="matrix(-0.4,0,0,-0.4,-4,0)" style="fill:#000;fill-opacity:1;fill-rule:evenodd;stroke:#000;stroke-width:1.00000003pt;stroke-opacity:1"/></marker><marker id="Arrow1Mstart-9-3" orient="auto" refX="0" refY="0" style="overflow:visible"><path id="path4570-1-0" d="M 0,0 5,-5 -12.5,0 5,5 Z" transform="matrix(0.4,0,0,0.4,4,0)" style="fill:#000;fill-opacity:1;fill-rule:evenodd;stroke:#000;stroke-width:1pt;stroke-opacity:1"/></marker><marker id="Arrow1Mend-7-1" orient="auto" refX="0" refY="0" style="overflow:visible"><path id="path4573-4-7" d="M 0,0 5,-5 -12.5,0 5,5 Z" transform="matrix(-0.4,0,0,-0.4,-4,0)" style="fill:#000;fill-opacity:1;fill-rule:evenodd;stroke:#000;stroke-width:1pt;stroke-opacity:1"/></marker><marker style="overflow:visible" id="marker4798-5" orient="auto" refX="0" refY="0"><path style="fill:#000;fill-opacity:1;fill-rule:evenodd;stroke:#000;stroke-width:1pt;stroke-opacity:1" id="path4800-4" d="M 0,0 5,-5 -12.5,0 5,5 Z" transform="matrix(0.2,0,0,0.2,1.2,0)"/></marker><marker style="overflow:visible" id="marker5004-9" orient="auto" refX="0" refY="0"><path style="fill:#000;fill-opacity:1;fill-rule:evenodd;stroke:#000;stroke-width:1pt;stroke-opacity:1" id="path5006-2" d="M 0,0 5,-5 -12.5,0 5,5 Z" transform="matrix(-0.2,0,0,-0.2,-1.2,0)"/></marker><marker id="Arrow1Mstart-8-7" orient="auto" refX="0" refY="0" style="overflow:visible"><path id="path4570-7-0" d="M 0,0 5,-5 -12.5,0 5,5 Z" transform="matrix(0.4,0,0,0.4,4,0)" style="fill:#000;fill-opacity:1;fill-rule:evenodd;stroke:#000;stroke-width:1.00000003pt;stroke-opacity:1"/></marker></defs><metadata id="metadata5"/><g id="layer1" transform="translate(0,-256.99999)"><rect style="stroke-width:.1;stroke-miterlimit:4;stroke-dasharray:none;fill:#006400;stroke:#000;stroke-opacity:1" id="rect4305" width="24" height="40" x="0" y="257"/><path style="fill:none;fill-rule:evenodd;stroke:#fc0;stroke-width:3;stroke-linecap:butt;stroke-linejoin:miter;stroke-miterlimit:4;stroke-dasharray:none;stroke-opacity:1" id="path4487" d="m 12.023009,260.99998 -0.02301,32.00001"/><path style="fill:none;fill-rule:evenodd;stroke:#000;stroke-width:.29999999;stroke-linecap:butt;stroke-linejoin:miter;stroke-miterlimit:4;stroke-dasharray:none;stroke-opacity:1;marker-start:url(#Arrow1Sstart);marker-end:url(#Arrow1Send)" id="path4562" d="m 4.4999996,259.99999 7.0230094,-1e-5"/><path style="fill:none;fill-rule:evenodd;stroke:#000;stroke-width:.2;stroke-linecap:butt;stroke-linejoin:miter;stroke-miterlimit:4;stroke-dasharray:none;stroke-dashoffset:0;stroke-opacity:1" id="path4910" d="m 3.9999996,263.99999 0,-4.5"/><path style="fill:none;fill-rule:evenodd;stroke:#000;stroke-width:.2;stroke-linecap:butt;stroke-linejoin:miter;stroke-miterlimit:4;stroke-dasharray:none;stroke-dashoffset:0;stroke-opacity:1" id="path4910-1" d="m 12.023009,260.49998 0,-1"/><text style="font-style:normal;font-weight:400;line-height:0%;font-family:sans-serif;text-align:start;letter-spacing:0;word-spacing:0;text-anchor:start;fill:#000;fill-opacity:1;stroke:none;stroke-width:.26458332px;stroke-linecap:butt;stroke-linejoin:miter;stroke-opacity:1" id="text5607" x="7.966" y="259.289" xml:space="preserve"><tspan id="tspan5605" x="7.966" y="259.289" style="font-size:2.11666656px;line-height:1.25;text-align:center;text-anchor:middle;stroke-width:.26458332px">Offset</tspan></text><circle style="fill:#1a1a1a;fill-opacity:1;stroke:#fc0;stroke-width:1;stroke-linecap:round;stroke-linejoin:round;stroke-miterlimit:4;stroke-dasharray:none;stroke-dashoffset:0;stroke-opacity:1" id="path4489-9-6" cx="4.023" cy="267" r="1.523"/><circle style="fill:#1a1a1a;fill-opacity:1;stroke:#fc0;stroke-width:1;stroke-linecap:round;stroke-linejoin:round;stroke-miterlimit:4;stroke-dasharray:none;stroke-dashoffset:0;stroke-opacity:1" id="path4489-9-6-6" cx="4" cy="273" r="1.523"/><circle style="fill:#1a1a1a;fill-opacity:1;stroke:#fc0;stroke-width:1;stroke-linecap:round;stroke-linejoin:round;stroke-miterlimit:4;stroke-dasharray:none;stroke-dashoffset:0;stroke-opacity:1" id="path4489-9-6-2" cx="4" cy="285.023" r="1.523"/><circle style="fill:#1a1a1a;fill-opacity:1;stroke:#fc0;stroke-width:1;stroke-linecap:round;stroke-linejoin:round;stroke-miterlimit:4;stroke-dasharray:none;stroke-dashoffset:0;stroke-opacity:1" id="path4489-9-6-3" cx="20.023" cy="267" r="1.523"/><circle style="fill:#1a1a1a;fill-opacity:1;stroke:#fc0;stroke-width:1;stroke-linecap:round;stroke-linejoin:round;stroke-miterlimit:4;stroke-dasharray:none;stroke-dashoffset:0;stroke-opacity:1" id="path4489-9-6-6-5" cx="20" cy="273" r="1.523"/><circle style="fill:#1a1a1a;fill-opacity:1;stroke:#fc0;stroke-width:1;stroke-linecap:round;stroke-linejoin:round;stroke-miterlimit:4;stroke-dasharray:none;stroke-dashoffset:0;stroke-opacity:1" id="path4489-9-6-2-5" cx="20" cy="285.023" r="1.523"/><path style="fill:none;fill-rule:evenodd;stroke:#000;stroke-width:.29999999;stroke-linecap:butt;stroke-linejoin:miter;stroke-miterlimit:4;stroke-dasharray:none;stroke-opacity:1;marker-start:url(#marker4722);marker-end:url(#marker4910)" id="path4562-0" d="m 16.999999,267.49999 0,5"/><path style="fill:none;fill-rule:evenodd;stroke:#000;stroke-width:.2;stroke-linecap:butt;stroke-linejoin:miter;stroke-miterlimit:4;stroke-dasharray:none;stroke-dashoffset:0;stroke-opacity:1" id="path4910-6" d="m 16.499999,266.99999 1,0"/><path style="fill:none;fill-rule:evenodd;stroke:#000;stroke-width:.2;stroke-linecap:butt;stroke-linejoin:miter;stroke-miterlimit:4;stroke-dasharray:none;stroke-dashoffset:0;stroke-opacity:1" id="path4910-1-8" d="m 16.499999,272.99999 1,0"/><text style="font-style:normal;font-weight:400;line-height:0%;font-family:sans-serif;text-align:start;letter-spacing:0;word-spacing:0;text-anchor:start;fill:#000;fill-opacity:1;stroke:none;stroke-width:.26458332px;stroke-linecap:butt;stroke-linejoin:miter;stroke-opacity:1" id="text5607-1" x="269.987" y="-14.211" transform="rotate(90)" xml:space="preserve"><tspan id="tspan5605-0" x="269.987" y="-14.211" style="font-size:2.11666656px;line-height:1.25;text-align:center;text-anchor:middle;stroke-width:.26458332px">Pitch</tspan></text><text style="font-style:normal;font-weight:400;line-height:0%;font-family:sans-serif;text-align:center;letter-spacing:0;word-spacing:0;text-anchor:middle;fill:#000;fill-opacity:1;stroke:none;stroke-width:1px;stroke-linecap:butt;stroke-linejoin:miter;stroke-opacity:1" id="text5110" x="5.083" y="289.841" xml:space="preserve"><tspan id="tspan5112" x="5.083" y="289.841" style="font-size:2.11666656px;line-height:1.25;text-align:center;text-anchor:middle">Via Size</tspan></text><path style="fill:none;fill-rule:evenodd;stroke:#000;stroke-width:.2;stroke-linecap:butt;stroke-linejoin:miter;stroke-miterlimit:4;stroke-dasharray:none;stroke-opacity:1;marker-start:url(#Arrow1Mend);marker-end:url(#Arrow1Mstart-8)" id="path5319" d="m 5.2022141,283.39636 -2.4224396,3.2534"/><path style="fill:none;fill-rule:evenodd;stroke:#666;stroke-width:.1;stroke-linecap:butt;stroke-linejoin:miter;stroke-miterlimit:4;stroke-dasharray:none;stroke-opacity:1;marker-start:url(#Arrow1Mstart);marker-end:url(#marker7369)" id="path7343" d="m 20.642371,285.69684 -1.317119,-1.33825"/><text style="font-style:normal;font-weight:400;line-height:0%;font-family:sans-serif;text-align:center;letter-spacing:0;word-spacing:0;text-anchor:middle;fill:#000;fill-opacity:1;stroke:none;stroke-width:1px;stroke-linecap:butt;stroke-linejoin:miter;stroke-opacity:1" id="text5110-9" x="18.988" y="289.841" xml:space="preserve"><tspan id="tspan5112-9" x="18.988" y="289.841" style="font-size:2.11666656px;line-height:1.25;text-align:center;text-anchor:middle">Via Drill</tspan></text><circle style="fill:#1a1a1a;fill-opacity:1;stroke:#fc0;stroke-width:1;stroke-linecap:round;stroke-linejoin:round;stroke-miterlimit:4;stroke-dasharray:none;stroke-dashoffset:0;stroke-opacity:1" id="path4489-9-6-6-4" cx="4" cy="279" r="1.523"/><circle style="fill:#1a1a1a;fill-opacity:1;stroke:#fc0;stroke-width:1;stroke-linecap:round;stroke-linejoin:round;stroke-miterlimit:4;stroke-dasharray:none;stroke-dashoffset:0;stroke-opacity:1" id="path4489-9-6-6-5-5" cx="20" cy="279" r="1.523"/></g></svg>