<svg xmlns="http://www.w3.org/2000/svg" xmlns:svg="http://www.w3.org/2000/svg" id="svg2" width="26" height="26" version="1.1"><metadata id="metadata50"/><defs id="defs4"><marker id="Arrow1Send" orient="auto" refX="0" refY="0" style="overflow:visible"><path id="path3806" d="M 0,0 5,-5 -12.5,0 5,5 0,0 z" transform="matrix(-0.2,0,0,-0.2,-1.2,0)" style="fill-rule:evenodd;stroke:#000;stroke-width:1pt"/></marker><marker id="Arrow1Sstart" orient="auto" refX="0" refY="0" style="overflow:visible"><path id="path3803" d="M 0,0 5,-5 -12.5,0 5,5 0,0 z" transform="matrix(0.2,0,0,0.2,1.2,0)" style="fill-rule:evenodd;stroke:#000;stroke-width:1pt"/></marker><marker id="h" orient="auto" refX="0" refY="0" style="overflow:visible"><path id="path10" d="M 8.7186,4.0337 -2.2074,0.016 8.7186,-4.0017 c -1.7455,2.3721 -1.7354,5.6175 -6e-7,8.0354 z" transform="scale(0.6,0.6)" style="fill-rule:evenodd;stroke-width:.625;stroke-linejoin:round"/></marker><marker id="g" orient="auto" refX="0" refY="0" style="overflow:visible"><path id="path13" d="M 8.7186,4.0337 -2.2074,0.016 8.7186,-4.0017 c -1.7455,2.3721 -1.7354,5.6175 -6e-7,8.0354 z" transform="scale(-0.6,-0.6)" style="fill-rule:evenodd;stroke-width:.625;stroke-linejoin:round"/></marker><filter id="d" width="1.21" height="1.365" x="-.105" y="-.183" color-interpolation-filters="sRGB"><feGaussianBlur id="feGaussianBlur7" stdDeviation="1.598"/></filter></defs><path id="path3002-1" d="M 0.25864914,10.924218 H 5.7586492 l 9.4999998,12 h 6" style="fill:none;stroke:#dfbd8a;stroke-width:5.5;stroke-linecap:butt;stroke-linejoin:miter;stroke-miterlimit:4;stroke-dasharray:none;stroke-opacity:1"/><path id="path3002" d="M 0.25864914,10.924218 H 5.7586492 l 9.4999998,12 h 6" style="fill:none;stroke:green;stroke-width:4;stroke-linecap:butt;stroke-linejoin:miter;stroke-miterlimit:4;stroke-dasharray:none;stroke-opacity:1"/><g id="g908" transform="matrix(0.73482795,0,0,0.73482795,-21.778176,0.83834692)"><path id="path4498" d="m 64.116047,27.158555 -19,-18 -6,6 -1,-1 4,-8 v 0 l 5,-5 1,1 4,-1.99999999 1,0.99999999 -3,3 14,14" style="fill:#f2f2f2;fill-rule:evenodd;stroke:#1a1a1a;stroke-width:1px;stroke-linecap:round;stroke-linejoin:round;stroke-opacity:1"/><path id="path4502" d="m 53.616047,8.658555 3.5,-3.5 1,1 -1,3 5.5,5.5 -1.5,1.5 z" style="fill:#f2f2f2;fill-rule:evenodd;stroke:#1a1a1a;stroke-width:1px;stroke-linecap:round;stroke-linejoin:round;stroke-opacity:1"/><path id="path4504" d="m 48.116047,11.158555 3,-3" style="fill:#f2f2f2;fill-rule:evenodd;stroke:#1a1a1a;stroke-width:1px;stroke-linecap:round;stroke-linejoin:miter;stroke-opacity:1"/><path style="fill:#f2f2f2;fill-rule:evenodd;stroke:#1a1a1a;stroke-width:1px;stroke-linecap:round;stroke-linejoin:miter;stroke-opacity:1" id="path4506" d="m 51.616047,13.658555 1.5,-1.5"/><path id="path4508" d="m 54.616047,16.658555 1.5,-1.5" style="fill:#f2f2f2;fill-rule:evenodd;stroke:#1a1a1a;stroke-width:1px;stroke-linecap:round;stroke-linejoin:miter;stroke-opacity:1"/><path style="fill:#f2f2f2;fill-rule:evenodd;stroke:#1a1a1a;stroke-width:1px;stroke-linecap:round;stroke-linejoin:miter;stroke-opacity:1" id="path4510" d="m 57.116047,20.158555 2,-2"/><path id="path4520" d="m 60.116047,23.158555 2,-2" style="fill:#f2f2f2;fill-rule:evenodd;stroke:#1a1a1a;stroke-width:1px;stroke-linecap:round;stroke-linejoin:miter;stroke-opacity:1"/><path id="path4500" d="m 42.116047,19.158555 7.5,-7 8,8 -2,2 -5,-5 -7.5,3 z" style="fill:#f2f2f2;fill-rule:evenodd;stroke:#1a1a1a;stroke-width:1px;stroke-linecap:round;stroke-linejoin:round;stroke-opacity:1"/></g></svg>