<svg xmlns="http://www.w3.org/2000/svg" xmlns:svg="http://www.w3.org/2000/svg" id="svg2" width="68.17" height="39.17" version="1.1" viewBox="0 0 63.91 36.722"><metadata id="metadata40"/><defs id="defs4"><filter id="c" width="1.21" height="1.365" x="-.105" y="-.183" style="color-interpolation-filters:sRGB"><feGaussianBlur id="feGaussianBlur7" stdDeviation="1.598"/></filter><filter id="d" width="1.481" height="1.47" x="-.24" y="-.235" style="color-interpolation-filters:sRGB"><feGaussianBlur id="feGaussianBlur10" stdDeviation="1.598"/></filter></defs><path id="path3872-9" d="M 6.6422998,2.8922999 V 33.8298 H 60.079799 l -1.5e-5,-30.9375001 z" style="opacity:.25;fill:#ccc;fill-opacity:1;stroke:#b3b3b3;stroke-width:3.90959978;stroke-linecap:butt;stroke-linejoin:round;stroke-miterlimit:4;stroke-dasharray:none;stroke-opacity:1"/><g id="g904" transform="translate(10.204784,5.1355441)"><path style="opacity:.25;fill:#fff;fill-opacity:1;stroke:#fff;stroke-width:2.5;stroke-linecap:butt;stroke-linejoin:round;stroke-miterlimit:4;stroke-dasharray:none;stroke-opacity:1" id="path3872" d="M -1.7193647e-8,-1.7193646e-8 V 26 H 26 V 11.5 H 14 14.03125 14.0625 C 12.8522,13.592433 10.591084,15 8,15 4.1340066,15 0.99999996,11.865993 0.99999996,8 0.99999996,4.1340066 4.1340066,0.99999996 8,0.99999996 c 2.591084,0 4.8522,1.40756694 6.0625,3.50000004 3.645833,0 8.291667,0 11.9375,0 V -1.7193646e-8 Z"/><path id="rect3811" d="M -1.7193647e-8,-1.7193646e-8 V 26 H 26 V 11.5 H 14 14.03125 14.0625 C 12.8522,13.592433 10.591084,15 8,15 4.1340066,15 0.99999996,11.865993 0.99999996,8 0.99999996,4.1340066 4.1340066,0.99999996 8,0.99999996 c 2.591084,0 4.8522,1.40756694 6.0625,3.50000004 3.645833,0 8.291667,0 11.9375,0 V -1.7193646e-8 Z" style="fill:#b3b3b3;fill-opacity:1;stroke:#b3b3b3;stroke-width:2.5;stroke-linecap:butt;stroke-linejoin:round;stroke-miterlimit:4;stroke-dasharray:none;stroke-opacity:1"/><path id="rect3869" d="M 0,-1.7193646e-8 V 25.999145 H 25.999145 V 10.394897 H 13.500366 c -0.924775,2.12164 -3.038255,3.605347 -5.5004882,3.605347 -3.3137084,0 -6.0003661,-2.686658 -6.0003661,-6.0003661 0,-3.313709 2.6866577,-6.0003662 6.0003661,-6.0003662 2.4692872,0 4.5872392,1.494109 5.5078122,3.6254883 H 25.999145 V -1.7193647e-8 Z" style="fill:#006400;fill-opacity:1;stroke:none;stroke-width:1"/><path id="path3867" d="m 11.5,8 h 13 m -13,0 C 11.5,9.932997 9.932997,11.5 8,11.5 6.0670034,11.5 4.5,9.932997 4.5,8 4.5,6.0670034 6.0670034,4.5 8,4.5 c 1.932997,0 3.5,1.5670034 3.5,3.5 z" style="opacity:1;fill:none;stroke:#fc0;stroke-width:3;stroke-linecap:round;stroke-linejoin:miter;stroke-miterlimit:4;stroke-dasharray:none;stroke-opacity:1"/><g id="g16" transform="matrix(1.6382539,0,0,1.5572263,1.2572207,0.36314149)"><rect style="fill-opacity:0" id="rect18" width="16" height="16" x="0" y="0"/></g><path style="opacity:.25;fill:none;stroke:#fff;stroke-width:3;stroke-linecap:round;stroke-linejoin:miter;stroke-miterlimit:4;stroke-dasharray:none;stroke-opacity:1" id="path3002" d="m 11.5,8 h 13 m -13,0 C 11.5,9.932997 9.932997,11.5 8,11.5 6.0670034,11.5 4.5,9.932997 4.5,8 4.5,6.0670034 6.0670034,4.5 8,4.5 c 1.932997,0 3.5,1.5670034 3.5,3.5 z"/><circle id="path825" cx="8.011" cy="8.002" r="1.898" style="opacity:.76300001;fill:#1a1a1a;fill-opacity:1;fill-rule:evenodd;stroke:none;stroke-width:14.23387146;stroke-miterlimit:4;stroke-dasharray:none;stroke-opacity:1"/><path id="path3088" d="m 28,11 h 6.562499" style="fill:#333;stroke:#333;stroke-width:.9375px;stroke-linecap:round;stroke-linejoin:miter;stroke-opacity:1"/><path id="path3088-3" d="m 27.986049,8.7326995 h 6.562499" style="fill:#333;stroke:#333;stroke-width:.9375px;stroke-linecap:round;stroke-linejoin:miter;stroke-opacity:1"/><text id="text851" x="28.789" y="25.152" xml:space="preserve" style="font-style:normal;font-variant:normal;font-weight:400;font-stretch:normal;font-size:10px;line-height:1.25;font-family:sans-serif;-inkscape-font-specification:'sans-serif, Normal';font-variant-ligatures:normal;font-variant-caps:normal;font-variant-numeric:normal;font-feature-settings:normal;text-align:start;letter-spacing:0;word-spacing:0;writing-mode:lr-tb;text-anchor:start;fill:#333;fill-opacity:1;stroke:#333;stroke-width:.9375"><tspan id="tspan888" x="28.789" y="25.152">exp</tspan></text><path id="path5191" d="M 33.75,17.624999 31.875,12 30,17.624999" style="fill:#333;stroke:#333;stroke-width:.9375px;stroke-linecap:round;stroke-linejoin:round;stroke-opacity:1"/><path id="path5195" d="M 30,2 31.875,7.625001 33.75,2" style="fill:#333;stroke:#333;stroke-width:.9375px;stroke-linecap:round;stroke-linejoin:round;stroke-opacity:1"/></g></svg>