<svg xmlns="http://www.w3.org/2000/svg" xmlns:svg="http://www.w3.org/2000/svg" id="svg2" width="27.733" height="27.733" version="1.1" viewBox="0 0 26 26"><metadata id="metadata40"/><defs id="defs4"><filter id="c" width="1.21" height="1.365" x="-.105" y="-.183" style="color-interpolation-filters:sRGB"><feGaussianBlur id="feGaussianBlur7" stdDeviation="1.598"/></filter><filter id="d" width="1.481" height="1.47" x="-.24" y="-.235" style="color-interpolation-filters:sRGB"><feGaussianBlur id="feGaussianBlur10" stdDeviation="1.598"/></filter></defs><path style="fill:#b3b3b3;fill-opacity:1;stroke:#b3b3b3;stroke-width:2.5;stroke-linecap:butt;stroke-linejoin:round;stroke-miterlimit:4;stroke-dasharray:none;stroke-opacity:1" id="rect3811" d="M -1.7193647e-8,-1.7193646e-8 V 26 H 26 V 11.5 H 14 14.03125 14.0625 C 12.8522,13.592433 10.591084,15 8,15 4.1340066,15 0.99999996,11.865993 0.99999996,8 0.99999996,4.1340066 4.1340066,0.99999996 8,0.99999996 c 2.591084,0 4.8522,1.40756694 6.0625,3.50000004 3.645833,0 8.291667,0 11.9375,0 V -1.7193646e-8 Z"/><path style="opacity:1;fill:none;stroke:#fc0;stroke-width:3;stroke-linecap:round;stroke-linejoin:miter;stroke-miterlimit:4;stroke-dasharray:none;stroke-opacity:1" id="path3867" d="m 11.5,8 h 13 m -13,0 C 11.5,9.932997 9.932997,11.5 8,11.5 6.0670034,11.5 4.5,9.932997 4.5,8 4.5,6.0670034 6.0670034,4.5 8,4.5 c 1.932997,0 3.5,1.5670034 3.5,3.5 z"/><g id="g16" transform="matrix(1.6382539,0,0,1.5572263,1.2572207,0.36314149)"><rect id="rect18" width="16" height="16" x="0" y="0" style="fill-opacity:0"/></g><path style="fill:#006400;fill-opacity:1;stroke:none;stroke-width:1" id="rect3869" d="M 0,-1.7193646e-8 V 25.999145 H 25.999145 V 10.394897 H 13.500366 c -0.924775,2.12164 -3.038255,3.605347 -5.5004882,3.605347 -3.3137084,0 -6.0003661,-2.686658 -6.0003661,-6.0003661 0,-3.313709 2.6866577,-6.0003662 6.0003661,-6.0003662 2.4692872,0 4.5872392,1.494109 5.5078122,3.6254883 H 25.999145 V -1.7193647e-8 Z"/><path id="path3002" d="m 11.5,8 h 13 m -13,0 C 11.5,9.932997 9.932997,11.5 8,11.5 6.0670034,11.5 4.5,9.932997 4.5,8 4.5,6.0670034 6.0670034,4.5 8,4.5 c 1.932997,0 3.5,1.5670034 3.5,3.5 z" style="opacity:.25;fill:none;stroke:#fff;stroke-width:3;stroke-linecap:round;stroke-linejoin:miter;stroke-miterlimit:4;stroke-dasharray:none;stroke-opacity:1"/><path id="path3872" d="M -1.7193647e-8,-1.7193646e-8 V 26 H 26 V 11.5 H 14 14.03125 14.0625 C 12.8522,13.592433 10.591084,15 8,15 4.1340066,15 0.99999996,11.865993 0.99999996,8 0.99999996,4.1340066 4.1340066,0.99999996 8,0.99999996 c 2.591084,0 4.8522,1.40756694 6.0625,3.50000004 3.645833,0 8.291667,0 11.9375,0 V -1.7193646e-8 Z" style="opacity:.25;fill:#fff;fill-opacity:1;stroke:#fff;stroke-width:2.5;stroke-linecap:butt;stroke-linejoin:round;stroke-miterlimit:4;stroke-dasharray:none;stroke-opacity:1"/><circle style="opacity:.76300001;fill:#1a1a1a;fill-opacity:1;fill-rule:evenodd;stroke:none;stroke-width:14.23387146;stroke-miterlimit:4;stroke-dasharray:none;stroke-opacity:1" id="path825" cx="8.011" cy="8.002" r="1.898"/></svg>